<svg width="568" height="608" viewBox="0 0 568 608" fill="none" xmlns="http://www.w3.org/2000/svg">
<path opacity="0.0526316" d="M653.913 480.848C638.953 499.82 591.14 531.567 519.566 506.781C430.097 475.798 395.495 393.67 315.643 351.086C256.707 319.655 98.3421 272.476 7.2799 324.609" stroke="white" stroke-width="1.45842"/>
<path opacity="0.105263" d="M668.666 441.074C655.869 461.433 611.799 497.77 537.898 480.251C445.523 458.352 402.104 380.122 318.02 345.727C255.96 320.341 93.289 289.2 8.44242 350.121" stroke="white" stroke-width="1.45842"/>
<path opacity="0.157895" d="M679.816 400.766C669.321 422.288 629.477 462.817 554.06 452.757C459.789 440.183 408.029 366.707 320.634 340.879C256.13 321.816 90.9358 307.053 13.2345 376.095" stroke="white" stroke-width="1.45842"/>
<path opacity="0.210526" d="M687.318 360.283C679.241 382.733 644.059 427.011 567.952 424.52C472.819 421.408 413.286 353.492 323.537 336.513C257.296 323.981 91.3879 325.76 21.6833 402.165" stroke="white" stroke-width="1.45842"/>
<path opacity="0.263158" d="M691.174 319.99C685.603 343.122 655.469 390.662 579.506 395.769C484.553 402.152 417.898 340.54 326.78 332.597C259.527 326.734 94.7226 345.033 33.7782 427.965" stroke="white" stroke-width="1.45842"/>
<path opacity="0.315789" d="M691.421 280.249C688.417 303.809 663.661 354.091 588.675 366.739C494.941 382.548 421.896 327.915 330.405 329.094C262.878 329.964 100.983 364.584 49.4666 453.134" stroke="white" stroke-width="1.45842"/>
<path opacity="0.368421" d="M688.143 241.417C687.738 265.147 668.633 317.62 595.444 337.67C503.957 362.732 425.321 315.677 334.461 325.965C267.399 333.559 110.187 384.121 68.6634 477.319" stroke="white" stroke-width="1.45842"/>
<path opacity="0.421053" d="M681.458 203.844C683.658 227.484 670.411 281.574 599.822 308.806C511.585 342.847 428.219 303.884 338.985 323.17C273.124 337.404 122.318 403.353 91.241 500.177" stroke="white" stroke-width="1.45842"/>
<path opacity="0.473684" d="M671.527 167.851C676.307 191.143 669.064 246.256 601.848 280.373C517.827 323.019 430.645 292.576 344.015 320.647C280.075 341.366 137.327 421.979 117.038 521.37" stroke="white" stroke-width="1.45842"/>
<path opacity="0.526316" d="M658.536 133.767C665.845 156.455 664.685 211.988 601.578 252.615C522.694 303.399 432.652 281.81 349.574 318.359C288.256 345.335 155.13 439.73 145.852 540.598" stroke="white" stroke-width="1.45842"/>
<path opacity="0.578947" d="M642.712 101.877C652.468 123.713 657.404 179.057 599.098 225.749C526.215 284.115 434.299 271.616 355.684 316.242C297.66 349.18 175.615 456.323 177.448 557.562" stroke="white" stroke-width="1.45842"/>
<path opacity="0.631579" d="M624.311 72.4536C636.408 93.1974 647.386 147.746 594.52 199.993C528.436 265.301 435.653 262.028 362.362 314.243C308.268 352.782 198.641 471.498 211.565 572.001" stroke="white" stroke-width="1.45842"/>
<path opacity="0.684211" d="M603.621 45.7419C617.927 65.1666 634.826 118.323 587.978 175.551C529.418 247.085 436.784 253.076 369.621 312.307C320.05 356.025 224.041 485.014 247.916 583.678" stroke="white" stroke-width="1.45842"/>
<path opacity="0.736842" d="M580.944 21.9542C597.301 39.8471 619.938 91.0285 579.622 152.61C529.227 229.588 437.757 244.776 377.457 310.375C332.951 358.792 251.613 496.641 286.177 592.385" stroke="white" stroke-width="1.45842"/>
<path opacity="0.789474" d="M556.621 1.27196C574.851 17.437 602.976 66.0825 569.634 131.344C527.956 212.921 438.653 237.14 385.877 308.388C346.924 360.974 281.148 506.172 326.021 597.948" stroke="white" stroke-width="1.45842"/>
<path opacity="0.842105" d="M530.997 -16.1588C550.899 -1.8987 584.204 43.678 558.202 111.904C525.698 197.187 439.54 230.171 394.866 306.287C361.893 362.467 312.399 513.423 367.09 600.226" stroke="white" stroke-width="1.45842"/>
<path opacity="0.894737" d="M504.435 -30.2242C525.792 -18.0253 563.913 23.9832 545.534 94.4267C522.56 182.481 440.491 223.869 404.408 304.019C377.777 363.176 345.107 518.238 409.018 599.115" stroke="white" stroke-width="1.45842"/>
<path opacity="0.947368" d="M477.309 -40.8501C499.887 -30.8461 542.405 7.13405 531.852 79.0229C518.66 168.884 441.579 218.222 414.483 301.529C394.484 363.015 378.998 520.482 451.427 594.549" stroke="white" stroke-width="1.45842"/>
<path d="M450.003 -48C473.554 -40.3005 520.004 -6.76483 517.392 65.7817C514.126 156.465 442.878 213.213 425.066 298.763C411.919 361.906 413.785 520.053 493.939 586.497" stroke="white" stroke-width="1.45842"/>
</svg>
