<svg width="13" height="10" viewBox="0 0 13 10" fill="none" xmlns="http://www.w3.org/2000/svg">
<path d="M0.219936 4.46976C-0.0733122 4.763 -0.0733121 5.237 0.219936 5.53025L4.18965 9.49997C4.4825 9.79281 4.9573 9.79281 5.25015 9.49997V9.49997C5.54299 9.20712 5.54299 8.73232 5.25015 8.43947L2.56067 5.75L11.75 5.74999C12.1642 5.74999 12.5 5.41421 12.5 5V5C12.5 4.58579 12.1642 4.25001 11.75 4.25001L2.56067 4.25001L5.25015 1.56053C5.54299 1.26768 5.54299 0.792884 5.25015 0.500037V0.500037C4.9573 0.20719 4.4825 0.20719 4.18965 0.500037L0.219936 4.46976Z" fill="#4A70F8"/>
</svg>
