<svg width="177" height="16" viewBox="0 0 177 16" fill="none" xmlns="http://www.w3.org/2000/svg">
<path d="M2.17847 2.09631H3.29584V12.305H9.21491V13.3323H2.17847V2.09631Z" fill="url(#paint0_linear_3935:29064)"/>
<path d="M28.2083 2.09631H29.3256V13.3323H28.2083V2.09631Z" fill="url(#paint1_linear_3935:29064)"/>
<path d="M60.8803 2.09631V13.3323H59.8082V4.3435L55.6558 11.9037H55.1273L50.9749 4.39165V13.3323H49.9028V2.09631H50.8239L55.4142 10.427L59.9592 2.09631H60.8803Z" fill="url(#paint2_linear_3935:29064)"/>
<path d="M86.0525 13.4286C85.0056 13.4286 84.0594 13.1825 83.2138 12.6902C82.3783 12.198 81.7189 11.5185 81.2358 10.6517C80.7626 9.77421 80.5261 8.79508 80.5261 7.71429C80.5261 6.63349 80.7626 5.65971 81.2358 4.79294C81.7189 3.91546 82.3833 3.2306 83.2289 2.73836C84.0745 2.24612 85.0207 2 86.0676 2C86.8528 2 87.5776 2.13911 88.242 2.41734C88.9064 2.69556 89.4701 3.10219 89.9332 3.63724L89.2235 4.39165C88.398 3.50348 87.3561 3.05939 86.0978 3.05939C85.2623 3.05939 84.5023 3.26271 83.8178 3.66934C83.1333 4.07598 82.5947 4.63242 82.2021 5.33868C81.8196 6.04494 81.6283 6.83681 81.6283 7.71429C81.6283 8.59176 81.8196 9.38363 82.2021 10.0899C82.5947 10.7961 83.1333 11.3526 83.8178 11.7592C84.5023 12.1659 85.2623 12.3692 86.0978 12.3692C87.3662 12.3692 88.4081 11.9197 89.2235 11.0209L89.9332 11.7753C89.4701 12.3103 88.9013 12.7223 88.2269 13.0112C87.5625 13.2895 86.8377 13.4286 86.0525 13.4286Z" fill="url(#paint3_linear_3935:29064)"/>
<path d="M113.853 13.4286C112.806 13.4286 111.854 13.1825 110.999 12.6902C110.153 12.1873 109.489 11.5024 109.006 10.6356C108.532 9.76886 108.296 8.79508 108.296 7.71429C108.296 6.63349 108.532 5.65971 109.006 4.79294C109.489 3.92616 110.153 3.24666 110.999 2.75441C111.854 2.25147 112.806 2 113.853 2C114.899 2 115.841 2.24612 116.676 2.73836C117.522 3.2306 118.186 3.91546 118.669 4.79294C119.153 5.65971 119.394 6.63349 119.394 7.71429C119.394 8.79508 119.153 9.77421 118.669 10.6517C118.186 11.5185 117.522 12.198 116.676 12.6902C115.841 13.1825 114.899 13.4286 113.853 13.4286ZM113.853 12.3692C114.688 12.3692 115.443 12.1712 116.117 11.7753C116.792 11.3686 117.32 10.8122 117.703 10.1059C118.085 9.38898 118.277 8.59176 118.277 7.71429C118.277 6.83681 118.085 6.04494 117.703 5.33868C117.32 4.62172 116.792 4.06528 116.117 3.66934C115.443 3.26271 114.688 3.05939 113.853 3.05939C113.017 3.05939 112.257 3.26271 111.572 3.66934C110.898 4.06528 110.365 4.62172 109.972 5.33868C109.589 6.04494 109.398 6.83681 109.398 7.71429C109.398 8.59176 109.589 9.38898 109.972 10.1059C110.365 10.8122 110.898 11.3686 111.572 11.7753C112.257 12.1712 113.017 12.3692 113.853 12.3692Z" fill="url(#paint4_linear_3935:29064)"/>
<path d="M146.254 13.3323L143.838 9.72071C143.567 9.75281 143.285 9.76886 142.993 9.76886H140.154V13.3323H139.037V2.09631H142.993C144.342 2.09631 145.399 2.43874 146.164 3.1236C146.929 3.80845 147.311 4.75013 147.311 5.94864C147.311 6.82611 147.1 7.56982 146.677 8.17978C146.264 8.77903 145.671 9.21241 144.895 9.47994L147.477 13.3323H146.254ZM142.963 8.75763C144.01 8.75763 144.81 8.5115 145.364 8.01926C145.917 7.52702 146.194 6.83681 146.194 5.94864C146.194 5.03906 145.917 4.3435 145.364 3.86196C144.81 3.36972 144.01 3.1236 142.963 3.1236H140.154V8.75763H142.963Z" fill="url(#paint5_linear_3935:29064)"/>
<path d="M174.561 12.305V13.3323H167.087V2.09631H174.335V3.1236H168.204V7.12039H173.67V8.13162H168.204V12.305H174.561Z" fill="url(#paint6_linear_3935:29064)"/>
<defs>
<linearGradient id="paint0_linear_3935:29064" x1="4.54587" y1="7.7586" x2="175.511" y2="7.7586" gradientUnits="userSpaceOnUse">
<stop offset="0.603091"/>
<stop offset="1" stop-opacity="0.4"/>
</linearGradient>
<linearGradient id="paint1_linear_3935:29064" x1="4.54587" y1="7.7586" x2="175.511" y2="7.7586" gradientUnits="userSpaceOnUse">
<stop offset="0.603091"/>
<stop offset="1" stop-opacity="0.4"/>
</linearGradient>
<linearGradient id="paint2_linear_3935:29064" x1="4.54587" y1="7.7586" x2="175.511" y2="7.7586" gradientUnits="userSpaceOnUse">
<stop offset="0.603091"/>
<stop offset="1" stop-opacity="0.4"/>
</linearGradient>
<linearGradient id="paint3_linear_3935:29064" x1="4.54587" y1="7.7586" x2="175.511" y2="7.7586" gradientUnits="userSpaceOnUse">
<stop offset="0.603091"/>
<stop offset="1" stop-opacity="0.4"/>
</linearGradient>
<linearGradient id="paint4_linear_3935:29064" x1="4.54587" y1="7.7586" x2="175.511" y2="7.7586" gradientUnits="userSpaceOnUse">
<stop offset="0.603091"/>
<stop offset="1" stop-opacity="0.4"/>
</linearGradient>
<linearGradient id="paint5_linear_3935:29064" x1="4.54587" y1="7.7586" x2="175.511" y2="7.7586" gradientUnits="userSpaceOnUse">
<stop offset="0.603091"/>
<stop offset="1" stop-opacity="0.4"/>
</linearGradient>
<linearGradient id="paint6_linear_3935:29064" x1="4.54587" y1="7.7586" x2="175.511" y2="7.7586" gradientUnits="userSpaceOnUse">
<stop offset="0.603091"/>
<stop offset="1" stop-opacity="0.4"/>
</linearGradient>
</defs>
</svg>
