<svg width="22" height="22" viewBox="0 0 22 22" fill="none" xmlns="http://www.w3.org/2000/svg">
<path fill-rule="evenodd" clip-rule="evenodd" d="M21.5 11C21.5 16.799 16.799 21.5 11 21.5C5.20101 21.5 0.5 16.799 0.5 11C0.5 5.20101 5.20101 0.5 11 0.5C16.799 0.5 21.5 5.20101 21.5 11ZM5.62622 16.3738C5.23569 15.9833 5.23569 15.3501 5.62622 14.9596L9.58579 11L5.62624 7.04045C5.23571 6.64993 5.23571 6.01676 5.62624 5.62624C6.01676 5.23571 6.64993 5.23571 7.04045 5.62624L11 9.58579L14.9595 5.62624C15.3501 5.23571 15.9832 5.23571 16.3738 5.62624C16.7643 6.01676 16.7643 6.64993 16.3738 7.04045L12.4142 11L16.3738 14.9596C16.7643 15.3501 16.7643 15.9833 16.3738 16.3738C15.9833 16.7643 15.3501 16.7643 14.9596 16.3738L11 12.4142L7.04043 16.3738C6.64991 16.7643 6.01674 16.7643 5.62622 16.3738Z" fill="#A4A4A4"/>
</svg>
