<svg width="24" height="24" viewBox="0 0 24 24" fill="none" xmlns="http://www.w3.org/2000/svg">
<path fill-rule="evenodd" clip-rule="evenodd" d="M0.817503 4.095C0 5.7 0 7.8 0 12C0 16.2 0 18.3 0.817503 19.905C1.5375 21.315 2.685 22.4625 4.095 23.1825C5.7 24 7.8 24 12 24C16.2 24 18.3 24 19.905 23.1825C21.315 22.4625 22.4625 21.315 23.1825 19.905C24 18.3 24 16.2 24 12C24 7.8 24 5.7 23.1825 4.095C22.4625 2.685 21.315 1.5375 19.905 0.817503C18.3 0 16.2 0 12 0C7.8 0 5.7 0 4.095 0.817503C2.685 1.5375 1.5375 2.685 0.817503 4.095ZM17.9888 6.47248C18.1988 6.47248 18.3975 6.55876 18.5438 6.70503C18.69 6.85503 18.7725 7.05752 18.7688 7.26373C18.7313 9.49876 18.645 11.2088 18.4838 12.5625C18.3263 13.9163 18.09 14.9212 17.7338 15.735C17.4938 16.2788 17.1975 16.7288 16.8488 17.1112C16.38 17.6175 15.8438 17.985 15.2588 18.3338C15.0087 18.4833 14.7486 18.631 14.4759 18.7859C13.8939 19.1164 13.2539 19.4799 12.5288 19.965C12.2663 20.1412 11.925 20.1412 11.6625 19.965C10.9263 19.4742 10.2779 19.1063 9.69057 18.7731C9.55996 18.699 9.43238 18.6267 9.30752 18.555C8.62131 18.1575 8.00255 17.7788 7.46255 17.2312C7.10255 16.8712 6.79131 16.4325 6.54379 15.9112C6.20628 15.2137 5.97753 14.37 5.80878 13.2788C5.58378 11.82 5.47128 9.91124 5.43003 7.26373C5.42628 7.05752 5.50503 6.85503 5.65128 6.70503C5.79753 6.55876 6.00003 6.47248 6.21003 6.47248H6.53255C7.52627 6.47627 9.72 6.37876 11.6175 4.90125C11.8988 4.68375 12.2925 4.68375 12.5738 4.90125C14.4713 6.37876 16.665 6.47627 17.6625 6.47248H17.9888ZM16.245 15.2363C16.4888 14.7337 16.6913 14.04 16.845 13.0425C17.0288 11.85 17.1413 10.23 17.1938 8.02503C16.0238 7.99124 14.0138 7.76627 12.0975 6.47627C10.1813 7.76248 8.1713 7.98752 7.00503 8.02503C7.04627 9.84752 7.12876 11.265 7.26 12.3788C7.41 13.6463 7.62379 14.505 7.89 15.1088C8.06627 15.51 8.2613 15.7988 8.49379 16.0537C8.80503 16.395 9.19876 16.6763 9.73503 16.9988C9.95747 17.1322 10.2027 17.271 10.4697 17.4222C10.9453 17.6913 11.4899 17.9996 12.0975 18.3863C12.694 18.0059 13.2307 17.7008 13.7008 17.4336C13.8425 17.3531 13.9781 17.276 14.1075 17.2012C14.7675 16.8225 15.255 16.5075 15.6188 16.14C15.8625 15.8888 16.0613 15.615 16.245 15.2363Z" fill="#3375BB"/>
</svg>
