<svg width="17" height="18" viewBox="0 0 17 18" fill="none" xmlns="http://www.w3.org/2000/svg">
<path d="M8.5 17.5C13.1944 17.5 17 13.6944 17 9C17 4.30558 13.1944 0.5 8.5 0.5C3.80558 0.5 0 4.30558 0 9C0 13.6944 3.80558 17.5 8.5 17.5Z" fill="#F0F0F0"/>
<path d="M16.4713 11.9562C16.813 11.0354 17 10.0394 17 8.99972C17 7.96 16.813 6.96404 16.4713 6.04321H0.528693C0.187033 6.96404 0 7.96 0 8.99972C0 10.0394 0.187033 11.0354 0.528693 11.9562L8.5 12.6954L16.4713 11.9562Z" fill="#0052B4"/>
<path d="M8.5006 17.5003C12.1553 17.5003 15.2709 15.1936 16.4719 11.9568H0.529297C1.73029 15.1936 4.8459 17.5003 8.5006 17.5003Z" fill="#D80027"/>
</svg>
