<svg width="17" height="18" viewBox="0 0 17 18" fill="none" xmlns="http://www.w3.org/2000/svg">
<path d="M8.5 17.5C13.1944 17.5 17 13.6944 17 9C17 4.30558 13.1944 0.5 8.5 0.5C3.80558 0.5 0 4.30558 0 9C0 13.6944 3.80558 17.5 8.5 17.5Z" fill="#F0F0F0"/>
<path d="M1.75726 3.82516C1.08958 4.69386 0.586119 5.6951 0.292969 6.7828H4.71489L1.75726 3.82516Z" fill="#0052B4"/>
<path d="M16.7072 6.78286C16.414 5.69519 15.9106 4.69395 15.2429 3.82526L12.2853 6.78286H16.7072Z" fill="#0052B4"/>
<path d="M0.292969 11.2175C0.586152 12.3052 1.08961 13.3064 1.75726 14.1751L4.7148 11.2175H0.292969Z" fill="#0052B4"/>
<path d="M13.6745 2.25729C12.8058 1.58961 11.8046 1.08615 10.7169 0.792969V5.21486L13.6745 2.25729Z" fill="#0052B4"/>
<path d="M3.32574 15.743C4.19444 16.4107 5.19568 16.9142 6.28335 17.2074V12.7855L3.32574 15.743Z" fill="#0052B4"/>
<path d="M6.28331 0.792969C5.19564 1.08615 4.1944 1.58961 3.32574 2.25726L6.28331 5.21483V0.792969Z" fill="#0052B4"/>
<path d="M10.7177 17.2074C11.8053 16.9142 12.8066 16.4107 13.6752 15.7431L10.7177 12.7855V17.2074Z" fill="#0052B4"/>
<path d="M12.2853 11.2175L15.2429 14.1751C15.9106 13.3064 16.414 12.3052 16.7072 11.2175H12.2853Z" fill="#0052B4"/>
<path d="M16.928 7.89131H9.60875H9.60872V0.571951C9.24578 0.524703 8.87576 0.5 8.5 0.5C8.12417 0.5 7.75422 0.524703 7.39131 0.571951V7.89125V7.89128H0.0719512C0.0247031 8.25422 0 8.62424 0 9C0 9.37583 0.0247031 9.74578 0.0719512 10.1087H7.39125H7.39128V17.428C7.75422 17.4753 8.12417 17.5 8.5 17.5C8.87576 17.5 9.24578 17.4753 9.60869 17.428V10.1088V10.1087H16.928C16.9753 9.74578 17 9.37583 17 9C17 8.62424 16.9753 8.25422 16.928 7.89131Z" fill="#D80027"/>
<path d="M10.7176 11.2174L14.5106 15.0104C14.685 14.836 14.8514 14.6537 15.0102 14.4647L11.7629 11.2174H10.7176V11.2174Z" fill="#D80027"/>
<path d="M6.28314 11.2174H6.28307L2.49011 15.0104C2.6645 15.1848 2.84681 15.3512 3.03581 15.51L6.28314 12.2626V11.2174Z" fill="#D80027"/>
<path d="M6.28274 6.78272V6.78265L2.48975 2.98962C2.3153 3.16401 2.14889 3.34633 1.99011 3.53532L5.23748 6.78268H6.28274V6.78272Z" fill="#D80027"/>
<path d="M10.7176 6.7826L14.5106 2.98954C14.3362 2.81509 14.1539 2.64867 13.9649 2.48993L10.7176 5.73729V6.7826Z" fill="#D80027"/>
</svg>
