<svg width="18" height="18" viewBox="0 0 18 18" fill="none" xmlns="http://www.w3.org/2000/svg">
<g clip-path="url(#clip0_3930:29418)">
<path d="M2.43677 10.5071H15.5618V13.5205H2.43677V10.5071Z" fill="#5679F8"/>
<path d="M2.43677 4.47986H15.5618V7.49325H2.43677V4.47986Z" fill="#5679F8"/>
<path d="M8.99927 4.47986H15.5618V7.49325H8.99927V4.47986Z" fill="#3754C0"/>
<path d="M8.99927 10.5071H15.5618V13.5205H8.99927V10.5071Z" fill="#3754C0"/>
<path d="M17.0688 0.428833H0.930455C0.649126 0.428833 0.428223 0.649737 0.428223 0.931065V4.9824C0.428223 5.2636 0.649126 5.48464 0.930455 5.48464H17.0688C17.3502 5.48464 17.5711 5.2636 17.5711 4.9824V0.931065C17.5711 0.649737 17.3502 0.428833 17.0688 0.428833Z" fill="#A0B4FB"/>
<path d="M17.0693 6.48914H0.930943C0.649615 6.48914 0.428711 6.71004 0.428711 6.99137V11.0092C0.428711 11.2904 0.649615 11.5115 0.930943 11.5115H17.0693C17.3507 11.5115 17.5716 11.2904 17.5716 11.0092V6.99137C17.5716 6.71004 17.3507 6.48914 17.0693 6.48914Z" fill="#A0B4FB"/>
<path d="M17.0693 12.5164H0.930943C0.649615 12.5164 0.428711 12.7373 0.428711 13.0186V17.0699C0.428711 17.3511 0.649615 17.5722 0.930943 17.5722H17.0693C17.3507 17.5722 17.5716 17.3511 17.5716 17.0699V13.0186C17.5716 12.7373 17.3507 12.5164 17.0693 12.5164Z" fill="#A0B4FB"/>
<path d="M17.5707 0.931187V4.98253C17.5707 5.26372 17.3498 5.48476 17.0685 5.48476H8.99927V0.428955H17.0685C17.3498 0.428955 17.5707 0.649859 17.5707 0.931187Z" fill="#5679F8"/>
<path d="M17.5707 6.99137V11.0092C17.5707 11.2904 17.3498 11.5115 17.0685 11.5115H8.99927V6.48914H17.0685C17.3498 6.48914 17.5707 6.71004 17.5707 6.99137Z" fill="#5679F8"/>
<path d="M17.5707 13.0186V17.0699C17.5707 17.3511 17.3498 17.5722 17.0685 17.5722H8.99927V12.5164H17.0685C17.3498 12.5164 17.5707 12.7373 17.5707 13.0186Z" fill="#5679F8"/>
<path d="M3.44196 15.027C3.44196 15.3044 3.21714 15.5292 2.93973 15.5292C2.66233 15.5292 2.4375 15.3044 2.4375 15.027C2.4375 14.7496 2.66233 14.5248 2.93973 14.5248C3.21714 14.5248 3.44196 14.7496 3.44196 15.027Z" fill="white"/>
<path d="M5.45124 15.027C5.45124 15.3044 5.22641 15.5292 4.94901 15.5292C4.6716 15.5292 4.44678 15.3044 4.44678 15.027C4.44678 14.7496 4.6716 14.5248 4.94901 14.5248C5.22641 14.5248 5.45124 14.7496 5.45124 15.027Z" fill="white"/>
<path d="M7.46052 15.027C7.46052 15.3044 7.23569 15.5292 6.95829 15.5292C6.68088 15.5292 6.45605 15.3044 6.45605 15.027C6.45605 14.7496 6.68088 14.5248 6.95829 14.5248C7.23569 14.5248 7.46052 14.7496 7.46052 15.027Z" fill="white"/>
<path d="M3.44196 9.00101C3.44196 9.27842 3.21714 9.50324 2.93973 9.50324C2.66233 9.50324 2.4375 9.27842 2.4375 9.00101C2.4375 8.72361 2.66233 8.49878 2.93973 8.49878C3.21714 8.49878 3.44196 8.72361 3.44196 9.00101Z" fill="white"/>
<path d="M5.45124 9.00101C5.45124 9.27842 5.22641 9.50324 4.94901 9.50324C4.6716 9.50324 4.44678 9.27842 4.44678 9.00101C4.44678 8.72361 4.6716 8.49878 4.94901 8.49878C5.22641 8.49878 5.45124 8.72361 5.45124 9.00101Z" fill="white"/>
<path d="M7.46052 9.00101C7.46052 9.27842 7.23569 9.50324 6.95829 9.50324C6.68088 9.50324 6.45605 9.27842 6.45605 9.00101C6.45605 8.72361 6.68088 8.49878 6.95829 8.49878C7.23569 8.49878 7.46052 8.72361 7.46052 9.00101Z" fill="white"/>
<path d="M3.44123 2.97342C3.44123 3.25083 3.2164 3.47566 2.939 3.47566C2.66159 3.47566 2.43677 3.25083 2.43677 2.97342C2.43677 2.69602 2.66159 2.47119 2.939 2.47119C3.2164 2.47119 3.44123 2.69602 3.44123 2.97342Z" fill="white"/>
<path d="M5.45124 2.97379C5.45124 3.25119 5.22641 3.47602 4.94901 3.47602C4.6716 3.47602 4.44678 3.25119 4.44678 2.97379C4.44678 2.69638 4.6716 2.47156 4.94901 2.47156C5.22641 2.47156 5.45124 2.69638 5.45124 2.97379Z" fill="white"/>
<path d="M7.46052 2.97379C7.46052 3.25119 7.23569 3.47602 6.95829 3.47602C6.68088 3.47602 6.45605 3.25119 6.45605 2.97379C6.45605 2.69638 6.68088 2.47156 6.95829 2.47156C7.23569 2.47156 7.46052 2.69638 7.46052 2.97379Z" fill="white"/>
</g>
<defs>
<clipPath id="clip0_3930:29418">
<rect width="17.1429" height="17.1429" fill="white" transform="translate(0.428223 0.428833)"/>
</clipPath>
</defs>
</svg>
