<svg width="25" height="23" viewBox="0 0 25 23" fill="none" xmlns="http://www.w3.org/2000/svg">
<path fill-rule="evenodd" clip-rule="evenodd" d="M4.57712 0.112963L0.0187405 10.2393C0.00139457 10.277 -0.00410224 10.3195 0.00305391 10.3607C0.0102101 10.4019 0.0296438 10.4396 0.0585131 10.4683L12.3696 22.9447C12.4046 22.9802 12.4511 23 12.4996 23C12.548 23 12.5946 22.9802 12.6296 22.9447L24.9407 10.4691C24.9695 10.4404 24.989 10.4027 24.9961 10.3615C25.0033 10.3203 24.9978 10.2777 24.9804 10.2401L20.4221 0.113742C20.4074 0.0797331 20.3837 0.0509236 20.3539 0.0307562C20.3241 0.0105888 20.2895 -8.34245e-05 20.2541 1.50745e-05H4.74652C4.71099 -0.000452421 4.67609 0.00996269 4.64603 0.030004C4.61597 0.0500454 4.59204 0.0788568 4.57712 0.112963Z" fill="#4A70F8"/>
<path fill-rule="evenodd" clip-rule="evenodd" d="M14.0814 11.2792C13.993 11.2862 13.5364 11.315 12.5178 11.315C11.7076 11.315 11.1324 11.2893 10.9305 11.2792C7.79957 11.1335 5.46257 10.5571 5.46257 9.86695C5.46257 9.1768 7.79957 8.60116 10.9305 8.45316V10.7051C11.1353 10.7207 11.7216 10.7573 12.5318 10.7573C13.504 10.7573 13.9908 10.7144 14.0785 10.7059V8.45471C17.2028 8.60194 19.5347 9.17836 19.5347 9.86695C19.5347 10.5555 17.2036 11.132 14.0785 11.2784L14.0814 11.2792ZM14.0814 8.22181V6.20667H18.4417V3.13372H6.5703V6.20667H10.9298V8.22103C7.38638 8.39318 4.72162 9.13552 4.72162 10.0251C4.72162 10.9146 7.38638 11.6562 10.9298 11.8291V18.2866H14.0807V11.8268C17.616 11.6546 20.2764 10.9131 20.2764 10.0243C20.2764 9.13552 17.6182 8.39396 14.0807 8.22103L14.0814 8.22181Z" fill="white"/>
</svg>
